# xmcd CD database file
#
# Track frame offsets:
#	150
#	33264
#	62844
#	99381
#	126282
#	158759
#	182030
#	198632
#	224239
#
# Disc length: 3304 seconds
#
# Revision: 0
# Processed by: cddbd v1.5.2PL0 Copyright (c) Steve Scherf et al.
# Submitted via: CDex 1.72
#
DISCID=850ce609
DTITLE=Field, Mike [CDN-11-Ashes-jazz) - Ashes
DYEAR=2011
DGENRE=Jazz
TTITLE0=Number Three
TTITLE1=Unwanted
TTITLE2=Nathan Phillips Square
TTITLE3=Ashes
TTITLE4=Missing In Paris
TTITLE5=The Upstanding Translator
TTITLE6=Locology
TTITLE7=Volcano Waltz
TTITLE8=Gotu Kola
EXTD=YEAR: 2011
EXTT0=
EXTT1=
EXTT2=
EXTT3=
EXTT4=
EXTT5=
EXTT6=
EXTT7=
EXTT8=
PLAYORDER=
